<mxfile host="app.diagrams.net" agent="Mozilla/5.0 (Windows NT 10.0; Win64; x64) AppleWebKit/537.36 (KHTML, like Gecko) Chrome/138.0.0.0 Safari/537.36" version="28.0.6">
  <diagram id="C5RBs43oDa-KdzZeNtuy" name="Page-1">
    <mxGraphModel dx="1426" dy="743" grid="0" gridSize="10" guides="1" tooltips="1" connect="1" arrows="1" fold="1" page="1" pageScale="1" pageWidth="827" pageHeight="1169" background="none" math="0" shadow="0">
      <root>
        <mxCell id="WIyWlLk6GJQsqaUBKTNV-0" />
        <mxCell id="WIyWlLk6GJQsqaUBKTNV-1" parent="WIyWlLk6GJQsqaUBKTNV-0" />
        <mxCell id="sW7xOyqZdAzlP1_AFJfC-4" value="" style="edgeStyle=orthogonalEdgeStyle;rounded=0;orthogonalLoop=1;jettySize=auto;html=1;strokeWidth=1;" edge="1" parent="WIyWlLk6GJQsqaUBKTNV-1" source="sW7xOyqZdAzlP1_AFJfC-1" target="sW7xOyqZdAzlP1_AFJfC-3">
          <mxGeometry relative="1" as="geometry" />
        </mxCell>
        <mxCell id="sW7xOyqZdAzlP1_AFJfC-1" value="接收到实时轨迹信号" style="strokeWidth=2;html=1;shape=mxgraph.flowchart.start_2;whiteSpace=wrap;" vertex="1" parent="WIyWlLk6GJQsqaUBKTNV-1">
          <mxGeometry x="107" y="58" width="65" height="62" as="geometry" />
        </mxCell>
        <mxCell id="sW7xOyqZdAzlP1_AFJfC-8" value="" style="edgeStyle=orthogonalEdgeStyle;rounded=0;orthogonalLoop=1;jettySize=auto;html=1;" edge="1" parent="WIyWlLk6GJQsqaUBKTNV-1" source="sW7xOyqZdAzlP1_AFJfC-3" target="sW7xOyqZdAzlP1_AFJfC-7">
          <mxGeometry relative="1" as="geometry" />
        </mxCell>
        <mxCell id="sW7xOyqZdAzlP1_AFJfC-3" value="查询该船近十分钟内最早的数据" style="whiteSpace=wrap;html=1;strokeWidth=2;" vertex="1" parent="WIyWlLk6GJQsqaUBKTNV-1">
          <mxGeometry x="79.5" y="201" width="120" height="60" as="geometry" />
        </mxCell>
        <mxCell id="sW7xOyqZdAzlP1_AFJfC-10" value="" style="edgeStyle=orthogonalEdgeStyle;rounded=0;orthogonalLoop=1;jettySize=auto;html=1;" edge="1" parent="WIyWlLk6GJQsqaUBKTNV-1" source="sW7xOyqZdAzlP1_AFJfC-7" target="sW7xOyqZdAzlP1_AFJfC-9">
          <mxGeometry relative="1" as="geometry" />
        </mxCell>
        <mxCell id="sW7xOyqZdAzlP1_AFJfC-11" value="否" style="edgeLabel;html=1;align=center;verticalAlign=middle;resizable=0;points=[];" vertex="1" connectable="0" parent="sW7xOyqZdAzlP1_AFJfC-10">
          <mxGeometry x="-0.3583" relative="1" as="geometry">
            <mxPoint x="4" y="-10" as="offset" />
          </mxGeometry>
        </mxCell>
        <mxCell id="sW7xOyqZdAzlP1_AFJfC-13" value="" style="edgeStyle=orthogonalEdgeStyle;rounded=0;orthogonalLoop=1;jettySize=auto;html=1;" edge="1" parent="WIyWlLk6GJQsqaUBKTNV-1" source="sW7xOyqZdAzlP1_AFJfC-7" target="sW7xOyqZdAzlP1_AFJfC-12">
          <mxGeometry relative="1" as="geometry" />
        </mxCell>
        <mxCell id="sW7xOyqZdAzlP1_AFJfC-14" value="是" style="edgeLabel;html=1;align=center;verticalAlign=middle;resizable=0;points=[];" vertex="1" connectable="0" parent="sW7xOyqZdAzlP1_AFJfC-13">
          <mxGeometry x="-0.225" y="-1" relative="1" as="geometry">
            <mxPoint x="9" as="offset" />
          </mxGeometry>
        </mxCell>
        <mxCell id="sW7xOyqZdAzlP1_AFJfC-7" value="判断是否超过配置的距离" style="rhombus;whiteSpace=wrap;html=1;strokeWidth=2;" vertex="1" parent="WIyWlLk6GJQsqaUBKTNV-1">
          <mxGeometry x="99.5" y="331" width="80" height="80" as="geometry" />
        </mxCell>
        <mxCell id="sW7xOyqZdAzlP1_AFJfC-9" value="" style="shape=waypoint;sketch=0;size=6;pointerEvents=1;points=[];fillColor=default;resizable=0;rotatable=0;perimeter=centerPerimeter;snapToPoint=1;strokeWidth=2;" vertex="1" parent="WIyWlLk6GJQsqaUBKTNV-1">
          <mxGeometry x="240" y="361" width="20" height="20" as="geometry" />
        </mxCell>
        <mxCell id="sW7xOyqZdAzlP1_AFJfC-16" value="" style="edgeStyle=orthogonalEdgeStyle;rounded=0;orthogonalLoop=1;jettySize=auto;html=1;" edge="1" parent="WIyWlLk6GJQsqaUBKTNV-1" source="sW7xOyqZdAzlP1_AFJfC-12" target="sW7xOyqZdAzlP1_AFJfC-15">
          <mxGeometry relative="1" as="geometry" />
        </mxCell>
        <mxCell id="sW7xOyqZdAzlP1_AFJfC-17" value="是" style="edgeLabel;html=1;align=center;verticalAlign=middle;resizable=0;points=[];" vertex="1" connectable="0" parent="sW7xOyqZdAzlP1_AFJfC-16">
          <mxGeometry x="-0.0734" y="4" relative="1" as="geometry">
            <mxPoint y="1" as="offset" />
          </mxGeometry>
        </mxCell>
        <mxCell id="sW7xOyqZdAzlP1_AFJfC-19" value="" style="edgeStyle=orthogonalEdgeStyle;rounded=0;orthogonalLoop=1;jettySize=auto;html=1;" edge="1" parent="WIyWlLk6GJQsqaUBKTNV-1" source="sW7xOyqZdAzlP1_AFJfC-12" target="sW7xOyqZdAzlP1_AFJfC-18">
          <mxGeometry relative="1" as="geometry" />
        </mxCell>
        <mxCell id="sW7xOyqZdAzlP1_AFJfC-20" value="否" style="edgeLabel;html=1;align=center;verticalAlign=middle;resizable=0;points=[];" vertex="1" connectable="0" parent="sW7xOyqZdAzlP1_AFJfC-19">
          <mxGeometry x="-0.25" y="-1" relative="1" as="geometry">
            <mxPoint as="offset" />
          </mxGeometry>
        </mxCell>
        <mxCell id="sW7xOyqZdAzlP1_AFJfC-12" value="判断是否为第&lt;div&gt;一次记录&lt;/div&gt;" style="rhombus;whiteSpace=wrap;html=1;strokeWidth=2;" vertex="1" parent="WIyWlLk6GJQsqaUBKTNV-1">
          <mxGeometry x="94.75" y="495" width="89.5" height="87" as="geometry" />
        </mxCell>
        <mxCell id="sW7xOyqZdAzlP1_AFJfC-15" value="记录到redis缓存" style="whiteSpace=wrap;html=1;strokeWidth=2;" vertex="1" parent="WIyWlLk6GJQsqaUBKTNV-1">
          <mxGeometry x="256" y="508.5" width="120" height="60" as="geometry" />
        </mxCell>
        <mxCell id="sW7xOyqZdAzlP1_AFJfC-25" value="" style="edgeStyle=orthogonalEdgeStyle;rounded=0;orthogonalLoop=1;jettySize=auto;html=1;" edge="1" parent="WIyWlLk6GJQsqaUBKTNV-1" source="sW7xOyqZdAzlP1_AFJfC-18" target="sW7xOyqZdAzlP1_AFJfC-24">
          <mxGeometry relative="1" as="geometry" />
        </mxCell>
        <mxCell id="sW7xOyqZdAzlP1_AFJfC-28" value="" style="edgeStyle=orthogonalEdgeStyle;rounded=0;orthogonalLoop=1;jettySize=auto;html=1;" edge="1" parent="WIyWlLk6GJQsqaUBKTNV-1" source="sW7xOyqZdAzlP1_AFJfC-18" target="sW7xOyqZdAzlP1_AFJfC-27">
          <mxGeometry relative="1" as="geometry" />
        </mxCell>
        <mxCell id="sW7xOyqZdAzlP1_AFJfC-29" value="否" style="edgeLabel;html=1;align=center;verticalAlign=middle;resizable=0;points=[];" vertex="1" connectable="0" parent="sW7xOyqZdAzlP1_AFJfC-28">
          <mxGeometry x="-0.3148" y="3" relative="1" as="geometry">
            <mxPoint as="offset" />
          </mxGeometry>
        </mxCell>
        <mxCell id="sW7xOyqZdAzlP1_AFJfC-18" value="判断和第一次时间是否超过配置时间&lt;div&gt;&lt;br&gt;&lt;/div&gt;" style="rhombus;whiteSpace=wrap;html=1;strokeWidth=2;" vertex="1" parent="WIyWlLk6GJQsqaUBKTNV-1">
          <mxGeometry x="94.75" y="658" width="89.5" height="87" as="geometry" />
        </mxCell>
        <mxCell id="sW7xOyqZdAzlP1_AFJfC-24" value="记录告警信息" style="whiteSpace=wrap;html=1;strokeWidth=2;" vertex="1" parent="WIyWlLk6GJQsqaUBKTNV-1">
          <mxGeometry x="253.75" y="671.5" width="120" height="60" as="geometry" />
        </mxCell>
        <mxCell id="sW7xOyqZdAzlP1_AFJfC-26" value="是" style="text;html=1;align=center;verticalAlign=middle;resizable=0;points=[];autosize=1;strokeColor=none;fillColor=none;" vertex="1" parent="WIyWlLk6GJQsqaUBKTNV-1">
          <mxGeometry x="199.5" y="678" width="30" height="26" as="geometry" />
        </mxCell>
        <mxCell id="sW7xOyqZdAzlP1_AFJfC-27" value="更新告警状态并删除缓存" style="whiteSpace=wrap;html=1;strokeWidth=2;" vertex="1" parent="WIyWlLk6GJQsqaUBKTNV-1">
          <mxGeometry x="79.5" y="838" width="120" height="60" as="geometry" />
        </mxCell>
      </root>
    </mxGraphModel>
  </diagram>
</mxfile>
